# xmcd
#
# Track frame offsets:
# 150
# 12977
# 24864
# 41059
# 54999
# 71202
# 90473
# 104276
# 117771
# 131112
#
# Disc length: 1938 seconds
#
#
# Revision: 0
# Processed by: cddbd v1.5.1PL2 Copyright (c) Steve Scherf et al.
# Submitted via: FreeRIP 2.945 
#
DISCID=7e07900a
DTITLE=Gene Watson - No One Will Ever Know
DYEAR=1980
DGENRE=Country
TTITLE0=If Love Could Find Us Now
TTITLE1=Raisin'  Cain In Texas
TTITLE2=A Cold Day In July
TTITLE3=We Robbed Trains
TTITLE4=Have A Good Day
TTITLE5=One Too Many Times
TTITLE6=Tryin' To Satisfy You
TTITLE7=No One Will Ever Know
TTITLE8=I've Been Down Some Roads
TTITLE9=Down And Out This Way Again
EXTD=
EXTT0=
EXTT1=
EXTT2=
EXTT3=
EXTT4=
EXTT5=
EXTT6=
EXTT7=
EXTT8=
EXTT9=
PLAYORDER=
